<svg xmlns="http://www.w3.org/2000/svg" width="500" height="500" viewBox="0 0 500 500" version="1.1"><path d="M 236.750 18.706 C 237.988 18.944, 240.012 18.944, 241.250 18.706 C 242.488 18.467, 241.475 18.272, 239 18.272 C 236.525 18.272, 235.512 18.467, 236.750 18.706 M 269.250 18.716 C 270.762 18.945, 273.238 18.945, 274.750 18.716 C 276.262 18.487, 275.025 18.300, 272 18.300 C 268.975 18.300, 267.738 18.487, 269.250 18.716 M 248.206 23.741 C 251.895 23.932, 258.195 23.934, 262.206 23.743 C 266.218 23.553, 263.200 23.396, 255.500 23.395 C 247.800 23.393, 244.518 23.549, 248.206 23.741 M 231.250 24.689 C 232.213 24.941, 233.787 24.941, 234.750 24.689 C 235.713 24.438, 234.925 24.232, 233 24.232 C 231.075 24.232, 230.287 24.438, 231.250 24.689 M 275.750 24.706 C 276.988 24.944, 279.012 24.944, 280.250 24.706 C 281.488 24.467, 280.475 24.272, 278 24.272 C 275.525 24.272, 274.512 24.467, 275.750 24.706 M 290.234 40.750 C 290.105 44.188, 289.887 46.998, 289.750 46.996 C 289.613 46.994, 282.750 45.653, 274.500 44.016 C 266.250 42.380, 257.947 41.031, 256.049 41.020 C 254.152 41.009, 245.264 42.449, 236.299 44.219 L 220 47.438 220 50.719 C 220 52.524, 220.275 54, 220.612 54 C 220.948 54, 228.747 52.616, 237.942 50.924 L 254.661 47.848 271.582 50.924 C 280.888 52.616, 288.738 54, 289.025 54 C 289.313 54, 289.678 62.517, 289.837 72.927 L 290.126 91.855 287.313 92.278 L 284.500 92.700 287.281 92.850 C 288.811 92.933, 290.281 92.431, 290.548 91.737 C 290.814 91.042, 290.905 77.879, 290.750 62.487 C 290.594 47.094, 290.362 37.313, 290.234 40.750 M 254.250 52.775 C 252.456 53.065, 252 53.794, 252 56.371 C 252 59.380, 252.242 59.610, 255.500 59.703 C 258.812 59.797, 259 59.625, 259 56.508 C 259 53.027, 257.923 52.181, 254.250 52.775 M 241.005 54.883 C 238.521 55.585, 237.380 57.943, 238.329 60.415 C 238.679 61.327, 239.970 61.528, 242.664 61.090 C 246.111 60.529, 246.500 60.165, 246.500 57.497 C 246.500 54.291, 245.233 53.688, 241.005 54.883 M 248.719 54.615 C 247.708 55.625, 247.823 58.773, 248.895 59.435 C 249.388 59.740, 250 59.429, 250.257 58.744 C 250.882 57.077, 249.627 53.707, 248.719 54.615 M 260 57 C 260 59.951, 261.282 60.970, 262.506 58.991 C 263.310 57.689, 262.148 54, 260.933 54 C 260.420 54, 260 55.350, 260 57 M 264 57.500 C 264 60.161, 264.419 61.003, 265.750 61.014 C 266.712 61.021, 268.512 61.299, 269.750 61.630 C 271.770 62.172, 272 61.875, 272 58.733 C 272 55.949, 271.540 55.110, 269.750 54.630 C 264.936 53.340, 264 53.807, 264 57.500 M 229.500 56.988 C 227.060 57.419, 226.481 58.030, 226.399 60.259 C 226.312 62.636, 226.681 63, 229.180 63 C 232.182 63, 233.390 61.444, 232.829 58.301 C 232.569 56.843, 231.873 56.568, 229.500 56.988 M 234.647 57.476 C 234.290 58.409, 234.417 59.921, 234.931 60.836 C 235.800 62.383, 235.911 62.382, 236.516 60.811 C 236.874 59.882, 236.747 58.370, 236.233 57.451 C 235.362 55.896, 235.253 55.897, 234.647 57.476 M 273.779 57.750 C 273.219 59.911, 273.860 62, 275.083 62 C 275.587 62, 276 60.650, 276 59 C 276 55.749, 274.515 54.913, 273.779 57.750 M 277.424 57.338 C 276.212 60.496, 277.427 62.491, 280.758 62.813 C 283.777 63.105, 284 62.916, 284 60.063 C 284 58.086, 283.497 57, 282.582 57 C 281.802 57, 280.456 56.728, 279.590 56.396 C 278.661 56.040, 277.774 56.425, 277.424 57.338 M 220.232 61 C 220.232 62.925, 220.438 63.712, 220.689 62.750 C 220.941 61.788, 220.941 60.212, 220.689 59.250 C 220.438 58.288, 220.232 59.075, 220.232 61 M 223 61 C 223 62.824, 223.415 63.862, 224 63.500 C 224.550 63.160, 225 62.035, 225 61 C 225 59.965, 224.550 58.840, 224 58.500 C 223.415 58.138, 223 59.176, 223 61 M 285.636 59.506 C 284.903 61.415, 285.930 64.161, 287.105 63.435 C 287.597 63.131, 288 62.035, 288 61 C 288 58.581, 286.383 57.559, 285.636 59.506 M 101.437 76.250 L 98.500 79.500 101.750 76.563 C 103.537 74.948, 105 73.485, 105 73.313 C 105 72.540, 104.175 73.221, 101.437 76.250 M 406 73.313 C 406 73.485, 407.462 74.948, 409.250 76.563 L 412.500 79.500 409.563 76.250 C 406.825 73.221, 406 72.540, 406 73.313 M 94.980 89.750 L 85.500 99.500 95.250 90.020 C 104.306 81.215, 105.455 80, 104.730 80 C 104.582 80, 100.194 84.388, 94.980 89.750 M 418.500 85 C 421.209 87.750, 423.650 90, 423.925 90 C 424.200 90, 422.209 87.750, 419.500 85 C 416.791 82.250, 414.350 80, 414.075 80 C 413.800 80, 415.791 82.250, 418.500 85 M 415.500 90 C 419.874 94.400, 423.678 98, 423.953 98 C 424.228 98, 420.874 94.400, 416.500 90 C 412.126 85.600, 408.322 82, 408.047 82 C 407.772 82, 411.126 85.600, 415.500 90 M 89.946 86.750 L 86.500 90.500 90.250 87.054 C 92.313 85.158, 94 83.471, 94 83.304 C 94 82.540, 93.154 83.260, 89.946 86.750 M 80.946 96.750 L 77.500 100.500 81.250 97.054 C 83.313 95.158, 85 93.471, 85 93.304 C 85 92.540, 84.154 93.260, 80.946 96.750 M 278.762 93.707 C 280.006 93.946, 281.806 93.937, 282.762 93.687 C 283.718 93.437, 282.700 93.241, 280.500 93.252 C 278.300 93.263, 277.518 93.468, 278.762 93.707 M 238.250 94.689 C 239.213 94.941, 240.787 94.941, 241.750 94.689 C 242.713 94.438, 241.925 94.232, 240 94.232 C 238.075 94.232, 237.287 94.438, 238.250 94.689 M 269.250 94.689 C 270.212 94.941, 271.788 94.941, 272.750 94.689 C 273.712 94.438, 272.925 94.232, 271 94.232 C 269.075 94.232, 268.288 94.438, 269.250 94.689 M 427 94.313 C 427 94.485, 428.462 95.948, 430.250 97.563 L 433.500 100.500 430.563 97.250 C 427.825 94.221, 427 93.540, 427 94.313 M 257.750 95.706 C 258.988 95.944, 261.012 95.944, 262.250 95.706 C 263.488 95.467, 262.475 95.272, 260 95.272 C 257.525 95.272, 256.512 95.467, 257.750 95.706 M 425 100.313 C 425 100.485, 426.462 101.948, 428.250 103.563 L 431.500 106.500 428.563 103.250 C 425.825 100.221, 425 99.540, 425 100.313 M 254.278 104.250 C 252.519 106.524, 251.819 108.540, 253.496 106.500 C 254.401 105.400, 255.593 104.624, 256.145 104.775 C 256.697 104.926, 256.864 104.588, 256.515 104.025 C 255.702 102.709, 255.450 102.734, 254.278 104.250 M 48.500 144 C 47.106 146.750, 46.191 149, 46.466 149 C 46.741 149, 48.106 146.750, 49.500 144 C 50.894 141.250, 51.809 139, 51.534 139 C 51.259 139, 49.894 141.250, 48.500 144 M 54 145 C 52.878 147.200, 52.184 149, 52.459 149 C 52.734 149, 53.878 147.200, 55 145 C 56.122 142.800, 56.816 141, 56.541 141 C 56.266 141, 55.122 142.800, 54 145 M 462.202 145.478 C 463.398 147.941, 464.549 149.785, 464.758 149.575 C 465.211 149.123, 461.170 141, 460.493 141 C 460.236 141, 461.005 143.015, 462.202 145.478 M 24.232 227 C 24.232 228.925, 24.438 229.713, 24.689 228.750 C 24.941 227.787, 24.941 226.213, 24.689 225.250 C 24.438 224.287, 24.232 225.075, 24.232 227 M 486.252 228.500 C 486.263 230.700, 486.468 231.482, 486.707 230.238 C 486.946 228.994, 486.937 227.194, 486.687 226.238 C 486.437 225.282, 486.241 226.300, 486.252 228.500 M 29.286 232.500 C 29.294 235.250, 29.488 236.256, 29.718 234.736 C 29.947 233.216, 29.941 230.966, 29.704 229.736 C 29.467 228.506, 29.279 229.750, 29.286 232.500 M 481.272 235 C 481.272 237.475, 481.467 238.488, 481.706 237.250 C 481.944 236.012, 481.944 233.988, 481.706 232.750 C 481.467 231.512, 481.272 232.525, 481.272 235 M 23.402 250 C 23.402 258.525, 23.556 262.012, 23.743 257.750 C 23.931 253.488, 23.931 246.512, 23.743 242.250 C 23.556 237.988, 23.402 241.475, 23.402 250 M 487.360 250 C 487.360 255.225, 487.529 257.363, 487.735 254.750 C 487.941 252.137, 487.941 247.863, 487.735 245.250 C 487.529 242.637, 487.360 244.775, 487.360 250 M 481.272 265 C 481.272 267.475, 481.467 268.488, 481.706 267.250 C 481.944 266.012, 481.944 263.988, 481.706 262.750 C 481.467 261.512, 481.272 262.525, 481.272 265 M 29.286 267.500 C 29.294 270.250, 29.488 271.256, 29.718 269.736 C 29.947 268.216, 29.941 265.966, 29.704 264.736 C 29.467 263.506, 29.279 264.750, 29.286 267.500 M 486.252 271.500 C 486.263 273.700, 486.468 274.482, 486.707 273.238 C 486.946 271.994, 486.937 270.194, 486.687 269.238 C 486.437 268.282, 486.241 269.300, 486.252 271.500 M 50 346.367 C 50 347.450, 54.970 357, 55.534 357 C 55.809 357, 54.847 354.637, 53.397 351.750 C 50.607 346.197, 50 345.235, 50 346.367 M 45 348.362 C 45 349.447, 50.968 361, 51.529 361 C 51.804 361, 50.619 358.188, 48.896 354.750 C 45.630 348.234, 45 347.202, 45 348.362 M 78 400.313 C 78 400.485, 79.463 401.948, 81.250 403.563 L 84.500 406.500 81.563 403.250 C 78.825 400.221, 78 399.540, 78 400.313 M 427.453 405.250 L 423.500 409.500 427.750 405.547 C 431.702 401.871, 432.460 401, 431.703 401 C 431.540 401, 429.627 402.913, 427.453 405.250 M 94.500 410 C 98.874 414.400, 102.678 418, 102.953 418 C 103.228 418, 99.874 414.400, 95.500 410 C 91.126 405.600, 87.322 402, 87.047 402 C 86.772 402, 90.126 405.600, 94.500 410 M 415.473 410.250 L 408.500 417.500 415.750 410.527 C 422.484 404.050, 423.457 403, 422.723 403 C 422.571 403, 419.308 406.262, 415.473 410.250 M 91 414.500 C 92.866 416.425, 94.617 418, 94.892 418 C 95.167 418, 93.866 416.425, 92 414.500 C 90.134 412.575, 88.383 411, 88.108 411 C 87.833 411, 89.134 412.575, 91 414.500 M 105 419.313 C 105 419.485, 106.463 420.948, 108.250 422.563 L 111.500 425.500 108.563 422.250 C 105.825 419.221, 105 418.540, 105 419.313 M 409.946 422.750 L 406.500 426.500 410.250 423.054 C 412.313 421.158, 414 419.471, 414 419.304 C 414 418.540, 413.154 419.260, 409.946 422.750 M 99 421.313 C 99 421.485, 100.463 422.948, 102.250 424.563 L 105.500 427.500 102.563 424.250 C 99.825 421.221, 99 420.540, 99 421.313 M 357 452 C 352.875 454.146, 349.849 455.923, 350.275 455.951 C 351.338 456.018, 365 449.094, 365 448.487 C 365 447.812, 365.329 447.668, 357 452 M 231.762 475.707 C 233.006 475.946, 234.806 475.937, 235.762 475.687 C 236.718 475.437, 235.700 475.241, 233.500 475.252 C 231.300 475.263, 230.518 475.468, 231.762 475.707 M 249.296 476.744 C 253.583 476.932, 260.333 476.931, 264.296 476.742 C 268.258 476.552, 264.750 476.399, 256.500 476.400 C 248.250 476.401, 245.008 476.556, 249.296 476.744 M 236.750 481.723 C 238.537 481.945, 241.463 481.945, 243.250 481.723 C 245.037 481.502, 243.575 481.320, 240 481.320 C 236.425 481.320, 234.963 481.502, 236.750 481.723 M 267.768 481.725 C 269.565 481.947, 272.265 481.943, 273.768 481.715 C 275.271 481.486, 273.800 481.304, 270.500 481.310 C 267.200 481.315, 265.971 481.502, 267.768 481.725" stroke="none" fill="#dcb366" fill-rule="evenodd"/><path d="M 234 19.040 C 157.054 26.439, 88.559 71.779, 51.760 139.672 C 32.764 174.718, 24 209.605, 24 250.173 C 24 286.491, 31.629 319.531, 47.437 351.677 C 62.183 381.664, 80.797 405.678, 105.356 426.400 C 160.245 472.713, 231.295 491.075, 301.149 476.999 C 391.279 458.837, 462.169 389.221, 481.895 299.500 C 486.375 279.119, 488.153 248.666, 486.098 227.500 C 481.831 183.561, 464.138 140.112, 436.012 104.500 C 427.240 93.393, 408.044 74.676, 396.613 66.085 C 363.779 41.406, 327.501 26.190, 287.936 20.503 C 274.778 18.612, 246.447 17.843, 234 19.040 M 238 23.615 C 166.345 30.206, 105.531 66.001, 66.365 124.640 C 41.479 161.898, 28.927 203.929, 28.927 250 C 28.927 311.790, 51.538 366.552, 94.993 410.007 C 114.011 429.025, 132.826 442.489, 156.500 454.020 C 186.592 468.677, 214.381 475.432, 249.500 476.625 C 274.472 477.474, 295.567 474.709, 320.497 467.320 C 407.234 441.613, 471.121 364.950, 480.942 274.789 C 482.299 262.330, 482.299 237.670, 480.942 225.211 C 475.419 174.502, 452.886 127.183, 417 90.932 C 382.250 55.830, 340.240 34.075, 291.500 25.944 C 279.827 23.996, 248.622 22.638, 238 23.615 M 236.250 30.748 L 220 35.371 220 41.185 C 220 45.387, 220.373 47, 221.344 47 C 222.083 47, 229.353 45.650, 237.500 44 C 245.647 42.350, 253.929 41.009, 255.906 41.020 C 257.883 41.031, 266.250 42.380, 274.500 44.016 C 282.750 45.653, 289.613 46.994, 289.750 46.996 C 289.887 46.998, 290 44.353, 290 41.117 L 290 35.234 274.750 30.992 C 266.363 28.659, 257.925 26.609, 256 26.437 C 253.973 26.256, 245.660 28.070, 236.250 30.748 M 248 48.990 C 246.075 49.425, 239.089 50.759, 232.475 51.954 L 220.450 54.129 220.161 73.065 C 220.002 83.479, 220.238 92.006, 220.686 92.014 C 221.134 92.022, 228.925 92.864, 238 93.886 C 247.075 94.907, 256.075 95.588, 258 95.399 C 270.846 94.135, 283.057 92.801, 286.312 92.305 L 290.124 91.724 289.836 72.862 C 289.678 62.488, 289.295 54, 288.986 54 C 288.677 54, 281.033 52.650, 272 51 C 254.662 47.833, 253.545 47.739, 248 48.990 M 254.250 52.775 C 252.456 53.065, 252 53.794, 252 56.371 C 252 59.380, 252.242 59.610, 255.500 59.703 C 258.812 59.797, 259 59.625, 259 56.508 C 259 53.027, 257.923 52.181, 254.250 52.775 M 241.005 54.883 C 238.521 55.585, 237.380 57.943, 238.329 60.415 C 238.679 61.327, 239.970 61.528, 242.664 61.090 C 246.111 60.529, 246.500 60.165, 246.500 57.497 C 246.500 54.291, 245.233 53.688, 241.005 54.883 M 248.719 54.615 C 247.708 55.625, 247.823 58.773, 248.895 59.435 C 249.388 59.740, 250 59.429, 250.257 58.744 C 250.882 57.077, 249.627 53.707, 248.719 54.615 M 260 57 C 260 59.951, 261.282 60.970, 262.506 58.991 C 263.310 57.689, 262.148 54, 260.933 54 C 260.420 54, 260 55.350, 260 57 M 264 57.500 C 264 60.161, 264.419 61.003, 265.750 61.014 C 266.712 61.021, 268.512 61.299, 269.750 61.630 C 271.770 62.172, 272 61.875, 272 58.733 C 272 55.949, 271.540 55.110, 269.750 54.630 C 264.936 53.340, 264 53.807, 264 57.500 M 229.500 56.988 C 227.060 57.419, 226.481 58.030, 226.399 60.259 C 226.312 62.636, 226.681 63, 229.180 63 C 232.182 63, 233.390 61.444, 232.829 58.301 C 232.569 56.843, 231.873 56.568, 229.500 56.988 M 234.647 57.476 C 234.290 58.409, 234.417 59.921, 234.931 60.836 C 235.800 62.383, 235.911 62.382, 236.516 60.811 C 236.874 59.882, 236.747 58.370, 236.233 57.451 C 235.362 55.896, 235.253 55.897, 234.647 57.476 M 273.779 57.750 C 273.219 59.911, 273.860 62, 275.083 62 C 275.587 62, 276 60.650, 276 59 C 276 55.749, 274.515 54.913, 273.779 57.750 M 277.424 57.338 C 276.212 60.496, 277.427 62.491, 280.758 62.813 C 283.777 63.105, 284 62.916, 284 60.063 C 284 58.086, 283.497 57, 282.582 57 C 281.802 57, 280.456 56.728, 279.590 56.396 C 278.661 56.040, 277.774 56.425, 277.424 57.338 M 223 61 C 223 62.824, 223.415 63.862, 224 63.500 C 224.550 63.160, 225 62.035, 225 61 C 225 59.965, 224.550 58.840, 224 58.500 C 223.415 58.138, 223 59.176, 223 61 M 285.636 59.506 C 284.903 61.415, 285.930 64.161, 287.105 63.435 C 287.597 63.131, 288 62.035, 288 61 C 288 58.581, 286.383 57.559, 285.636 59.506 M 251.242 110.652 C 249.063 114.418, 245.210 121.100, 242.679 125.500 L 238.078 133.500 246.488 133.788 C 251.114 133.947, 258.948 133.947, 263.896 133.788 L 272.893 133.500 264.875 119.500 C 260.464 111.800, 256.484 105.118, 256.030 104.652 C 255.575 104.185, 253.421 106.885, 251.242 110.652" stroke="none" fill="#161617" fill-rule="evenodd"/></svg>